<?xml version="1.0" standalone="no"?>
<!DOCTYPE svg PUBLIC "-//W3C//DTD SVG 20010904//EN"
 "http://www.w3.org/TR/2001/REC-SVG-20010904/DTD/svg10.dtd">
<svg version="1.0" xmlns="http://www.w3.org/2000/svg"
 width="1280.000000pt" height="1280.000000pt" viewBox="0 0 1280.000000 1280.000000"
 preserveAspectRatio="xMidYMid meet">
<metadata>
Created by potrace 1.11, written by Peter Selinger 2001-2013
</metadata>
<g transform="translate(0.000000,1280.000000) scale(0.100000,-0.100000)"
fill="#000000" stroke="none">
<path d="M6193 12050 c-212 -10 -213 -11 -213 -201 0 -121 -3 -124 -142 -133
-87 -6 -97 -5 -102 11 -3 10 -14 59 -25 110 -20 94 -39 140 -64 162 -28 22
-686 -45 -716 -74 -13 -12 -29 -163 -30 -286 l-1 -47 -91 -17 c-52 -10 -94
-14 -99 -9 -5 5 -21 52 -35 104 -43 155 -40 150 -96 150 -100 0 -385 -81 -395
-112 -7 -22 -1 -50 97 -483 111 -488 111 -490 135 -488 10 1 71 7 134 13 63 6
178 19 255 30 77 11 273 33 435 50 162 17 336 35 385 41 114 14 1088 28 1215
17 458 -38 1216 -124 1444 -164 105 -18 130 -14 144 23 29 72 181 680 204 811
14 85 10 96 -48 129 -50 29 -221 90 -302 109 -91 21 -95 17 -127 -123 -15 -65
-30 -121 -34 -125 -6 -7 -301 39 -310 48 -3 3 -8 67 -11 142 -3 80 -11 146
-18 159 -19 34 -27 35 -401 69 l-294 26 -23 -24 c-17 -17 -25 -42 -33 -99 -6
-42 -15 -88 -20 -103 -10 -26 -12 -26 -103 -26 -51 0 -99 4 -106 9 -9 5 -17
46 -23 120 -10 122 -26 166 -65 181 -28 11 -286 11 -521 0z"/>
<path d="M2944 10621 c-397 -6 -395 -6 -431 -50 -7 -8 -13 -32 -13 -53 0 -35
7 -45 82 -116 209 -198 234 -225 271 -302 20 -41 41 -102 47 -135 7 -41 13
-872 20 -2595 10 -2757 8 -2657 66 -2918 30 -133 92 -318 136 -406 48 -96 129
-215 192 -284 149 -160 442 -360 696 -473 221 -99 436 -161 980 -284 162 -36
342 -82 400 -101 285 -94 576 -288 848 -563 67 -68 121 -129 119 -135 -2 -6
-22 -12 -45 -14 -56 -4 -410 33 -612 64 -466 71 -1110 231 -1462 364 -66 25
-65 21 -71 158 -4 88 -7 96 -42 148 -36 52 -202 214 -335 325 -127 107 -258
169 -469 224 -94 25 -221 34 -221 15 0 -5 49 -108 109 -227 161 -320 230 -492
249 -620 l9 -63 -91 0 c-175 -1 -324 -40 -456 -121 -88 -53 -241 -165 -305
-222 -38 -35 -39 -36 -15 -37 132 -3 336 -97 500 -230 129 -105 257 -201 374
-280 62 -42 97 -58 170 -76 125 -32 136 -45 136 -167 1 -117 12 -166 45 -193
35 -28 236 -111 420 -174 535 -182 1081 -301 1635 -355 346 -34 996 -29 1305
11 540 69 1194 246 1605 434 63 29 149 66 190 82 44 17 87 42 103 60 29 30 29
31 22 118 -9 112 -44 77 345 346 69 48 188 134 265 192 77 58 172 120 210 138
67 31 268 95 348 109 20 4 37 13 37 19 0 14 -74 71 -150 116 -198 117 -413
201 -567 221 -48 6 -108 17 -133 23 l-45 12 -3 54 c-2 29 4 88 13 129 31 138
70 221 179 378 56 81 130 190 164 241 l63 92 -28 11 c-91 35 -386 -43 -560
-149 -66 -39 -274 -219 -435 -374 -111 -107 -110 -106 -83 -233 23 -109 21
-122 -22 -144 -49 -24 -402 -126 -663 -191 -472 -117 -905 -188 -1341 -221
-149 -11 -209 -9 -209 10 0 17 240 251 339 330 103 82 235 173 322 224 159 91
422 180 779 262 348 81 452 107 600 151 282 83 411 142 630 289 389 260 535
444 664 836 53 161 72 255 85 414 12 138 20 1265 23 2920 3 1663 11 2295 32
2368 37 134 82 192 304 399 105 98 116 145 44 193 l-37 24 -3475 4 c-1911 2
-3646 1 -3856 -2z"/>
</g>
</svg>
